<mxfile host="app.diagrams.net" modified="2021-05-15T09:22:47.790Z" agent="5.0 (Windows NT 10.0; Win64; x64) AppleWebKit/537.36 (KHTML, like Gecko) Chrome/90.0.4430.214 Safari/537.36" etag="4SjqMlrTSmYScS4BVWsG" version="14.2.4" type="github">
  <diagram id="ZQJPqDb_hHt0u6amZrvK" name="Page-1">
    <mxGraphModel dx="2052" dy="2302" grid="1" gridSize="10" guides="1" tooltips="1" connect="1" arrows="1" fold="1" page="1" pageScale="1" pageWidth="827" pageHeight="1169" math="0" shadow="0">
      <root>
        <mxCell id="0" />
        <mxCell id="1" parent="0" />
        <mxCell id="uDIp1nYdUxsMnsxH5jg1-3" style="edgeStyle=orthogonalEdgeStyle;rounded=0;orthogonalLoop=1;jettySize=auto;html=1;" edge="1" parent="1" source="uDIp1nYdUxsMnsxH5jg1-1" target="uDIp1nYdUxsMnsxH5jg1-2">
          <mxGeometry relative="1" as="geometry" />
        </mxCell>
        <mxCell id="uDIp1nYdUxsMnsxH5jg1-1" value="Start" style="ellipse;whiteSpace=wrap;html=1;aspect=fixed;strokeColor=#36393d;fillColor=#C4C4C4;" vertex="1" parent="1">
          <mxGeometry x="350" y="-1070" width="50" height="50" as="geometry" />
        </mxCell>
        <mxCell id="uDIp1nYdUxsMnsxH5jg1-5" style="edgeStyle=orthogonalEdgeStyle;rounded=0;orthogonalLoop=1;jettySize=auto;html=1;entryX=0.5;entryY=0;entryDx=0;entryDy=0;" edge="1" parent="1" source="uDIp1nYdUxsMnsxH5jg1-2" target="uDIp1nYdUxsMnsxH5jg1-4">
          <mxGeometry relative="1" as="geometry" />
        </mxCell>
        <mxCell id="uDIp1nYdUxsMnsxH5jg1-2" value="&quot;Hinzufügen&quot; in der ToDoListen Übersicht drücken" style="rounded=1;whiteSpace=wrap;html=1;fillColor=#ffff88;strokeColor=#36393d;arcSize=14;" vertex="1" parent="1">
          <mxGeometry x="242.5" y="-990" width="265" height="60" as="geometry" />
        </mxCell>
        <mxCell id="uDIp1nYdUxsMnsxH5jg1-7" style="edgeStyle=orthogonalEdgeStyle;rounded=0;orthogonalLoop=1;jettySize=auto;html=1;" edge="1" parent="1" source="uDIp1nYdUxsMnsxH5jg1-4" target="uDIp1nYdUxsMnsxH5jg1-6">
          <mxGeometry relative="1" as="geometry" />
        </mxCell>
        <mxCell id="uDIp1nYdUxsMnsxH5jg1-4" value="Felder ausfüllen" style="rounded=1;whiteSpace=wrap;html=1;fillColor=#ffff88;strokeColor=#36393d;arcSize=14;" vertex="1" parent="1">
          <mxGeometry x="242.5" y="-900" width="265" height="60" as="geometry" />
        </mxCell>
        <mxCell id="uDIp1nYdUxsMnsxH5jg1-9" style="edgeStyle=orthogonalEdgeStyle;rounded=0;orthogonalLoop=1;jettySize=auto;html=1;" edge="1" parent="1" source="uDIp1nYdUxsMnsxH5jg1-6" target="uDIp1nYdUxsMnsxH5jg1-8">
          <mxGeometry relative="1" as="geometry" />
        </mxCell>
        <mxCell id="uDIp1nYdUxsMnsxH5jg1-6" value="Speichern der ToDoListe" style="rounded=1;whiteSpace=wrap;html=1;fillColor=#ffff88;strokeColor=#36393d;arcSize=14;" vertex="1" parent="1">
          <mxGeometry x="242.5" y="-810" width="265" height="60" as="geometry" />
        </mxCell>
        <mxCell id="uDIp1nYdUxsMnsxH5jg1-8" value="Start" style="ellipse;whiteSpace=wrap;html=1;aspect=fixed;strokeColor=#36393d;fillColor=#C4C4C4;" vertex="1" parent="1">
          <mxGeometry x="350" y="-720" width="50" height="50" as="geometry" />
        </mxCell>
      </root>
    </mxGraphModel>
  </diagram>
</mxfile>
